<svg xmlns="http://www.w3.org/2000/svg" height="512" viewBox="-96 0 480 480" width="512"><path d="M224 240c0-53.02-42.98-96-96-96s-96 42.98-96 96 42.98 96 96 96c52.996-.059 95.945-43.004 96-96zm-176 0c0-44.184 35.82-80 80-80 44.184 0 80 35.816 80 80s-35.816 80-80 80c-44.16-.047-79.95-35.836-80-80zm0 0" data-original="#000000" class="active-path" data-old_color="#000000" fill="#EDBDAF"/><path d="M64 480h128a8 8 0 0 0 8-8v-79.2l11.137-55.655A127.982 127.982 0 0 0 251.785 272H264c13.258 0 24-10.746 24-24v-16c0-13.254-10.742-24-24-24h-12.215a128.028 128.028 0 0 0-40.648-65.137L200 87.2V8a8 8 0 0 0-8-8H64a8 8 0 0 0-8 8v79.2l-11.133 55.663A127.568 127.568 0 0 0 0 239.996a127.568 127.568 0 0 0 44.867 97.133L56 392.8V472a8 8 0 0 0 8 8zm190.89-256H264a8 8 0 0 1 8 8v16a8 8 0 0 1-8 8h-9.11a115.834 115.834 0 0 0 0-32zM184 432h-56a8 8 0 0 0 0 16h56v16H72v-32h16a8 8 0 0 0 0-16H72v-16h112zm1.45-48H70.554l-6.68-33.39c39.605 23.187 88.648 23.187 128.254 0zM72 48h16a8 8 0 0 0 0-16H72V16h112v32h-56a8 8 0 0 0 0 16h56v16H72zm-1.445 48h114.894l6.672 33.39c-39.605-23.187-88.644-23.187-128.246 0zM16 240c0-61.855 50.145-112 112-112 61.86 0 112 50.145 112 112s-50.14 112-112 112c-61.828-.066-111.934-50.172-112-112zm0 0" data-original="#000000" class="active-path" data-old_color="#000000" fill="#EDBDAF"/><path d="M136 240v-56a8 8 0 0 0-16 0v52.688l-29.656 29.656a8.008 8.008 0 0 0-2.18 7.781 7.993 7.993 0 0 0 5.715 5.71 7.992 7.992 0 0 0 7.777-2.179l32-32A8.001 8.001 0 0 0 136 240zm0 0" data-original="#000000" class="active-path" data-old_color="#000000" fill="#EDBDAF"/></svg>