<svg xmlns="http://www.w3.org/2000/svg" height="512" viewBox="0 -40 496 496" width="512"><path d="M40 392v16H8v-16c0-4.398 1.762-8.398 4.719-11.281C15.602 377.762 19.602 376 24 376c8.8 0 16 7.2 16 16zm75.281-11.281C118.238 383.602 120 387.602 120 392v16H88v-16c0-8.8 7.2-16 16-16 4.398 0 8.398 1.762 11.281 4.719zM408 392v16h-32v-16c0-8.8 7.2-16 16-16 4.398 0 8.398 1.762 11.281 4.719C406.238 383.602 408 387.602 408 392zm64-16c8.8 0 16 7.2 16 16v16h-32v-16c0-4.398 1.762-8.398 4.719-11.281C463.602 377.762 467.602 376 472 376zm16-336c0 8.836-7.164 16-16 16s-16-7.164-16-16 7.164-16 16-16 16 7.164 16 16zM40 40c0 8.836-7.164 16-16 16S8 48.836 8 40s7.164-16 16-16 16 7.164 16 16zm0 0" data-original="#000000" data-old_color="#000000" fill="#edbdaf"/><path d="M368 136v120h-64V128c0-4.398 3.602-8 8-8h48c4.398 0 8 3.602 8 8zm0 0" fill="#fff" data-original="#FCD770" data-old_color="#ffffff"/><path d="M208 176l32 96s-24 32-72 32-72-32-72-32l32-96zm-1.36-88H240v32l-6.398 4.8c-8 6.079-14.403 13.759-18.801 22.56-4.403 8.8-6.801 18.562-6.801 28.64h-80c0-20.16-9.52-39.121-25.602-51.2L96 120V88h33.36c2.242 0 4.402-.16 6.562-.398L136 88c0 17.68 14.32 32 32 32s32-14.32 32-32l.078-.398c2.16.238 4.32.398 6.563.398zm0 0" fill="#fff" data-original="#B4DD7F" class="active-path" data-old_color="#ffffff"/><path d="M476.434 368.45L440 317.433V48h9.473c3.312 9.29 12.113 16 22.527 16 13.23 0 24-10.77 24-24s-10.77-24-24-24c-10.414 0-19.215 6.71-22.527 16H344c0-17.648-14.352-32-32-32s-32 14.352-32 32H176c0-17.648-14.352-32-32-32s-32 14.352-32 32H46.527C43.215 22.71 34.414 16 24 16 10.77 16 0 26.77 0 40s10.77 24 24 24c10.414 0 19.215-6.71 22.527-16H56v269.434l-36.434 51.015C8.45 370.535 0 380.29 0 392v24h496v-24c0-11.71-8.45-21.465-19.566-23.55zM472 32c4.414 0 8 3.594 8 8s-3.586 8-8 8-8-3.594-8-8 3.586-8 8-8zM312 16c8.824 0 16 7.176 16 16h-32c0-8.824 7.176-16 16-16zm0 232V128h48v120zm48-136h-48c-8.824 0-16 7.176-16 16h-16V96h17.375c14.184 0 27.648-4.68 38.625-13.32C346.977 91.32 360.441 96 374.625 96H392v32h-16c0-8.824-7.176-16-16-16zM144 16c8.824 0 16 7.176 16 16h-32c0-8.824 7.176-16 16-16zm-10.238 168h68.468l28.739 86.223C223.96 277.664 203.137 296 168 296c-35.152 0-55.984-18.352-62.977-25.777zm66.695-16h-64.906c-2.207-19.559-12.461-37.688-28.344-49.602L104 116V96h24.809c3.718 18.23 19.87 32 39.191 32s35.473-13.77 39.191-32H232v20l-3.191 2.398c-15.899 11.915-26.145 30.043-28.352 49.602zM168 112c-11.2 0-20.55-7.734-23.184-18.129 8.391-2.129 16.313-5.773 23.184-11.183 6.879 5.41 14.793 9.066 23.184 11.183C188.55 104.266 179.199 112 168 112zM24 48c-4.414 0-8-3.594-8-8s3.586-8 8-8 8 3.594 8 8-3.586 8-8 8zm136 0v20.473C151.504 75.895 140.77 80 129.375 80H88v44l9.602 7.2c13.726 10.296 21.992 26.577 22.335 43.702l-32.847 98.54 2.512 3.359C90.68 278.238 116.594 312 168 312s77.32-33.762 78.398-35.2l2.512-3.35-32.847-98.54c.343-17.125 8.609-33.406 22.343-43.703L248 124V80h-41.375C195.23 80 184.488 75.895 176 68.473V48h152v20.473C319.504 75.895 308.77 80 297.375 80H264v64h32v152h16v-32h16v32h16v-32h16v32h16V144h32V80h-33.375C363.23 80 352.488 75.895 344 68.473V48h80v269.434l-36.434 51.015C376.45 370.535 368 380.29 368 392v8H128v-8c0-11.71-8.45-21.465-19.566-23.55L72 317.433V48zm240 352h-16v-8c0-4.406 3.586-8 8-8s8 3.594 8 8zm-296-16c4.414 0 8 3.594 8 8v8H96v-8c0-4.406 3.586-8 8-8zm-72 16H16v-8c0-4.406 3.586-8 8-8s8 3.594 8 8zm4.832-28.207L64 333.77l27.168 38.023C84.473 376.055 80 383.496 80 392v8H48v-8c0-8.504-4.473-15.945-11.168-20.207zM448 392v8h-32v-8c0-8.504-4.473-15.945-11.168-20.207L432 333.77l27.168 38.023C452.473 376.055 448 383.496 448 392zm32 8h-16v-8c0-4.406 3.586-8 8-8s8 3.594 8 8zm0 0" data-original="#000000" data-old_color="#000000" fill="#edbdaf"/></svg>