<svg xmlns="http://www.w3.org/2000/svg" height="512" viewBox="0 -6 512 512" width="512"><path d="M502.176 409.484c-39.992-56.593-87.489-105.093-141.219-144.218l-23.273-46.192 34.523-105.715.063-.187c2.632-8.442 2.804-17.375.492-25.844a36.53 36.53 0 0 0-.524-1.75l-.078-.25c-3.87-11.902-12.867-21.316-24.676-25.816a42.63 42.63 0 0 0-4.004-1.293V1.089h-30v60.044a42.82 42.82 0 0 0-2.57 1.375l-12.48 7.289c-13.305 7.777-27.864 11.906-42.106 11.945h-.648c-14.238-.039-28.797-4.168-42.106-11.945l-12.484-7.293a42.98 42.98 0 0 0-2.32-1.254V0h-30v58.145a43.34 43.34 0 0 0-4.25 1.367c-11.813 4.504-20.805 13.914-24.7 25.902l-.054.176a35.306 35.306 0 0 0-.528 1.758c-2.304 8.46-2.132 17.39.496 25.824l34.586 105.902-23.27 46.192C97.314 304.39 49.817 352.89 9.825 409.484L0 423.383l15.027 7.988c82.86 44.035 163.797 67.41 240.57 69.473l.403.008.402-.008c76.774-2.063 157.711-25.438 240.57-69.473L512 423.383zM168.18 104.051c-.907-2.953-.961-6.059-.16-8.977l.187-.597c1.441-4.438 4.906-6.34 6.844-7.079 3.574-1.359 7.508-1.043 10.785.872l12.48 7.292c17.786 10.391 37.45 15.938 56.887 16.047.473.016.942.016 1.414 0 19.442-.109 39.102-5.656 56.883-16.047l12.48-7.289a12.476 12.476 0 0 1 10.79-.875c1.937.739 5.402 2.641 6.82 6.997l.21.68c.802 2.917.747 6.019-.16 8.972l-34.226 104.808c-17.848 6.614-35.812 10.06-53.504 10.223-17.691-.164-35.656-3.605-53.504-10.223zm159.308 161.656c-24 6.23-48.008 11.242-71.547 11.293-23.59-.05-47.605-5.063-71.609-11.293l4.457-8.894 8.996-17.758c19.262 6.492 38.715 9.86 57.996 10.023l.13.004.124-.004c19.285-.164 38.735-3.531 57.996-10.023l9.09 17.941zM255.91 470.988c-67.332-1.875-138.457-21.398-211.68-58.074 35.176-47 75.954-87.7 121.438-121.266 30.117 8.903 60.434 15.29 90.273 15.352 29.782-.063 60.094-6.45 90.211-15.352 45.48 33.567 86.262 74.266 121.438 121.266-73.223 36.676-144.352 56.2-211.68 58.074zm0 0" data-original="#000000" class="active-path" data-old_color="#000000" fill="#FFF"/></svg>