<svg xmlns="http://www.w3.org/2000/svg" version="1.1" id="Layer_1" x="0" y="0" xml:space="preserve" width="512" height="512"><path d="M511.891 186.273L491.767 65.534a59.303 59.303 0 0 0-44.128-47.8l-55.682-13.92A127.825 127.825 0 0 0 360.977 0H151.02a127.825 127.825 0 0 0-30.98 3.814L64.36 17.733a59.303 59.303 0 0 0-44.128 47.8L.11 186.273a8.016 8.016 0 0 0 5.168 8.852l88.785 32.286v276.572A8.017 8.017 0 0 0 102.08 512h307.841a8.017 8.017 0 0 0 8.017-8.017V227.41l88.785-32.286a8.015 8.015 0 0 0 5.168-8.851zM333.08 16.034c-4.024 38.978-37.056 69.478-77.081 69.478s-73.055-30.5-77.081-69.478H333.08zm-182.06 0h11.799c4.08 47.833 44.31 85.511 93.181 85.511s89.101-37.678 93.181-85.511h11.797c2.142 0 4.283.067 6.42.19-1.959 27.089-13.581 52.275-33.114 71.469-21.014 20.65-48.816 32.023-78.283 32.023-29.356 0-57.083-11.299-78.073-31.816-19.648-19.206-31.362-44.484-33.33-71.676 2.137-.123 4.279-.19 6.422-.19zM94.063 210.35l-77.042-28.016 2.649-15.891 74.394 26.782v17.125zm307.841 285.616H110.097v-18.171h291.807v18.171zm8.017-376.252a8.017 8.017 0 0 0-8.017 8.017V461.76H110.097V127.731a8.017 8.017 0 0 0-16.034 0v48.452l-71.715-25.817 13.7-82.198a43.274 43.274 0 0 1 32.201-34.879l55.68-13.92c1.576-.394 3.162-.741 4.753-1.066 2.445 30.753 15.789 59.315 38.038 81.063 24.003 23.462 55.71 36.384 89.28 36.384 33.697 0 65.49-13.005 89.522-36.62 22.119-21.734 35.362-50.192 37.794-80.826 1.591.325 3.178.671 4.753 1.066l55.682 13.92a43.274 43.274 0 0 1 32.201 34.88l13.7 82.197-71.715 25.817v-48.452a8.017 8.017 0 0 0-8.016-8.018zm8.016 90.636v-17.125l74.394-26.782 2.649 15.891-77.043 28.016z" data-original="#000000" class="active-path" data-old_color="#F9F9F9" fill="#FFF"/></svg>