<svg xmlns="http://www.w3.org/2000/svg" height="512" viewBox="-92 -18 585 585.331" width="512"><path d="M384.598 139.84h-76.97v-31.563C307.629 48.48 259.149 0 199.353 0 139.55 0 91.07 48.48 91.07 108.277v31.563H7.742c-6.879.02-12.457 5.59-12.476 12.476v334.059c.015 34.445 27.933 62.363 62.375 62.375h277.18c34.445-.012 62.363-27.93 62.37-62.375V152.316c-.078-6.91-5.691-12.464-12.593-12.476zm-268.703-31.688c0-46.02 37.312-83.332 83.328-83.332 46.027 0 83.332 37.313 83.332 83.332v31.563h-166.66zM372.12 486.375c-.062 20.648-16.781 37.367-37.422 37.426H57.52c-20.648-.059-37.367-16.778-37.425-37.426V164.789h70.851v50.77c0 6.89 5.59 12.476 12.473 12.476 6.89 0 12.477-5.586 12.477-12.476v-50.77H282.68v50.77c0 6.89 5.586 12.476 12.476 12.476 6.883 0 12.473-5.586 12.473-12.476v-50.77h64.492zm0 0" data-original="#000000" class="active-path" data-old_color="#000000" fill="#FFF"/><path d="M196.105 219.55c-68.89 0-124.742 55.852-124.742 124.743 0 68.894 55.852 124.746 124.742 124.746 68.899 0 124.747-55.852 124.747-124.746-.114-68.848-55.899-124.633-124.747-124.742zm0 224.54c-55.117 0-99.796-44.68-99.796-99.797s44.68-99.793 99.796-99.793c55.118 0 99.797 44.676 99.797 99.793-.074 55.09-44.71 99.723-99.797 99.797zm0 0" data-original="#000000" class="active-path" data-old_color="#000000" fill="#FFF"/><path d="M247.25 303l-65.738 62.875-33.68-33.68c-4.86-4.86-12.734-4.86-17.594 0-4.851 4.86-4.851 12.73 0 17.586l42.293 42.29a12.257 12.257 0 0 0 8.856 3.616 12.083 12.083 0 0 0 8.61-3.492l74.597-71.226a12.457 12.457 0 0 0 3.836-8.719 12.44 12.44 0 0 0-3.465-8.871c-4.824-4.91-12.684-5.074-17.715-.379zm0 0" data-original="#000000" class="active-path" data-old_color="#000000" fill="#FFF"/></svg>