<svg xmlns="http://www.w3.org/2000/svg" viewBox="0 0 64 64" width="512" height="512"><path d="M61 42h-1v-1.919a9.028 9.028 0 0 0-6.591-8.673l-11.944-3.317-9.8-7.837-3.961-3.961A1 1 0 0 0 27 16h-5a1 1 0 0 0-.8 1.6l2.487 3.317C22.792 21.661 20.55 23 16 23a18.678 18.678 0 0 1-10.4-2.8 1 1 0 0 0-1.576.583l-2 9a1 1 0 0 0-.008.4L3.8 40H3a1 1 0 0 0-1 1v2a5.006 5.006 0 0 0 5 5h52a3 3 0 0 0 3-3v-2a1 1 0 0 0-1-1zM26.586 18l3.707 3.707c.026.026.054.051.082.074l1.35 1.08-2.432 2.432 1.414 1.414 2.593-2.589 1.207.965-2.21 2.21 1.414 1.414 2.367-2.367 1.207.965-1.988 1.988 1.414 1.414 2.145-2.145 1.118.895c-.3 2.224-2.733 3.159-3.739 3.453l-12.35-9.7a6.268 6.268 0 0 0 1.951-1.651A1 1 0 0 0 25.8 20.4L24 18zM5.673 22.582A21.889 21.889 0 0 0 16 25a17.914 17.914 0 0 0 5.827-.864l13.555 10.65a.993.993 0 0 0 .814.194c1.769-.353 4.923-1.769 5.649-4.707l11.029 3.063A7.021 7.021 0 0 1 58 40.081V42H44.618l1.282-2.553A1 1 0 0 0 45 38h-9.654L21.618 27.214A1 1 0 0 0 21 27h-7a1 1 0 0 0-.62 1.785L30.119 42h-4.883l-3.506-1.753C17.287 31.776 7.559 29.633 4.216 29.139zM42.382 42h-9.035L16.88 29h3.774l13.728 10.786A1 1 0 0 0 35 40h8.382zM4.23 31.174c3.1.517 10.934 2.427 15.045 8.826H5.834zM60 45a1 1 0 0 1-1 1H7a3 3 0 0 1-3-3v-1h16.764l3.789 1.9A1 1 0 0 0 25 44h35z" data-original="#000000" class="active-path" data-old_color="#000000" fill="#EDBDAF" id="outline"/></svg>