<?xml version="1.0"?>
<svg xmlns="http://www.w3.org/2000/svg" height="512px" viewBox="-96 0 480 480" width="512px"><g><path d="m224 240c0-53.019531-42.980469-96-96-96s-96 42.980469-96 96 42.980469 96 96 96c52.996094-.058594 95.945312-43.003906 96-96zm-176 0c0-44.183594 35.820312-80 80-80 44.183594 0 80 35.816406 80 80s-35.816406 80-80 80c-44.160156-.046875-79.949219-35.835938-80-80zm0 0" data-original="#000000" class="active-path" data-old_color="#000000" fill="#EDBDAF"/><path d="m64 480h128c4.417969 0 8-3.582031 8-8v-79.199219l11.136719-55.65625c19.898437-17.042969 34.085937-39.78125 40.648437-65.144531h12.214844c13.257812 0 24-10.746094 24-24v-16c0-13.253906-10.742188-24-24-24h-12.214844c-6.566406-25.359375-20.753906-48.09375-40.648437-65.136719l-11.136719-55.664062v-79.199219c0-4.417969-3.582031-8-8-8h-128c-4.417969 0-8 3.582031-8 8v79.199219l-11.132812 55.664062c-28.46875 24.238281-44.867188 59.746094-44.867188 97.132813 0 37.386718 16.398438 72.894531 44.867188 97.132812l11.132812 55.671875v79.199219c0 4.417969 3.582031 8 8 8zm190.890625-256h9.109375c4.417969 0 8 3.582031 8 8v16c0 4.417969-3.582031 8-8 8h-9.109375c1.480469-10.613281 1.480469-21.386719 0-32zm-70.890625 208h-56c-4.417969 0-8 3.582031-8 8s3.582031 8 8 8h56v16h-112v-32h16c4.417969 0 8-3.582031 8-8s-3.582031-8-8-8h-16v-16h112zm1.449219-48h-114.894531l-6.679688-33.390625c39.605469 23.1875 88.648438 23.1875 128.253906 0zm-113.449219-336h16c4.417969 0 8-3.582031 8-8s-3.582031-8-8-8h-16v-16h112v32h-56c-4.417969 0-8 3.582031-8 8s3.582031 8 8 8h56v16h-112zm-1.445312 48h114.894531l6.671875 33.390625c-39.605469-23.1875-88.644532-23.1875-128.246094 0zm-54.554688 144c0-61.855469 50.144531-112 112-112 61.859375 0 112 50.144531 112 112s-50.140625 112-112 112c-61.828125-.066406-111.933594-50.171875-112-112zm0 0" data-original="#000000" class="active-path" data-old_color="#000000" fill="#EDBDAF"/><path d="m136 240v-56c0-4.417969-3.582031-8-8-8s-8 3.582031-8 8v52.6875l-29.65625 29.65625c-2.078125 2.007812-2.910156 4.984375-2.179688 7.78125.730469 2.796875 2.917969 4.980469 5.714844 5.710938 2.796875.734374 5.769532-.101563 7.777344-2.179688l32-32c1.5-1.5 2.34375-3.535156 2.34375-5.65625zm0 0" data-original="#000000" class="active-path" data-old_color="#000000" fill="#EDBDAF"/></g> </svg>
