<?xml version="1.0"?>
<svg xmlns="http://www.w3.org/2000/svg" height="512px" viewBox="0 -40 496 496" width="512px" class=""><g><g fill="#cf9e76"><path d="m40 392v16h-32v-16c0-4.398438 1.761719-8.398438 4.71875-11.28125 2.882812-2.957031 6.882812-4.71875 11.28125-4.71875 8.800781 0 16 7.199219 16 16zm0 0" data-original="#000000" class="" style="fill:#EDBDAF" data-old_color="#000000"/><path d="m115.28125 380.71875c2.957031 2.882812 4.71875 6.882812 4.71875 11.28125v16h-32v-16c0-8.800781 7.199219-16 16-16 4.398438 0 8.398438 1.761719 11.28125 4.71875zm0 0" data-original="#000000" class="" style="fill:#EDBDAF" data-old_color="#000000"/><path d="m408 392v16h-32v-16c0-8.800781 7.199219-16 16-16 4.398438 0 8.398438 1.761719 11.28125 4.71875 2.957031 2.882812 4.71875 6.882812 4.71875 11.28125zm0 0" data-original="#000000" class="" style="fill:#EDBDAF" data-old_color="#000000"/><path d="m472 376c8.800781 0 16 7.199219 16 16v16h-32v-16c0-4.398438 1.761719-8.398438 4.71875-11.28125 2.882812-2.957031 6.882812-4.71875 11.28125-4.71875zm0 0" data-original="#000000" class="" style="fill:#EDBDAF" data-old_color="#000000"/><path d="m488 40c0 8.835938-7.164062 16-16 16s-16-7.164062-16-16 7.164062-16 16-16 16 7.164062 16 16zm0 0" data-original="#000000" class="" style="fill:#EDBDAF" data-old_color="#000000"/><path d="m40 40c0 8.835938-7.164062 16-16 16s-16-7.164062-16-16 7.164062-16 16-16 16 7.164062 16 16zm0 0" data-original="#000000" class="" style="fill:#EDBDAF" data-old_color="#000000"/></g><path d="m368 136v120h-64v-128c0-4.398438 3.601562-8 8-8h48c4.398438 0 8 3.601562 8 8zm0 0" fill="#fcd770" data-original="#FCD770" class="" style="fill:#FFFFFF" data-old_color="#ffffff"/><path d="m208 176 32 96s-24 32-72 32-72-32-72-32l32-96zm0 0" fill="#b4dd7f" data-original="#B4DD7F" class="active-path" style="fill:#FFFFFF" data-old_color="#ffffff"/><path d="m206.640625 88h33.359375v32l-6.398438 4.800781c-8 6.078125-14.402343 13.757813-18.800781 22.558594-4.402343 8.800781-6.800781 18.5625-6.800781 28.640625h-80c0-20.160156-9.519531-39.121094-25.601562-51.199219l-6.398438-4.800781v-32h33.359375c2.242187 0 4.402344-.160156 6.5625-.398438l.078125.398438c0 17.679688 14.320312 32 32 32s32-14.320312 32-32l.078125-.398438c2.160156.238282 4.320313.398438 6.5625.398438zm0 0" fill="#b4dd7f" data-original="#B4DD7F" class="active-path" style="fill:#FFFFFF" data-old_color="#ffffff"/><path d="m476.433594 368.449219-36.433594-51.015625v-269.433594h9.472656c3.3125 9.289062 12.113282 16 22.527344 16 13.230469 0 24-10.769531 24-24s-10.769531-24-24-24c-10.414062 0-19.214844 6.710938-22.527344 16h-105.472656c0-17.648438-14.351562-32-32-32s-32 14.351562-32 32h-104c0-17.648438-14.351562-32-32-32s-32 14.351562-32 32h-65.472656c-3.3125-9.289062-12.113282-16-22.527344-16-13.230469 0-24 10.769531-24 24s10.769531 24 24 24c10.414062 0 19.214844-6.710938 22.527344-16h9.472656v269.433594l-36.433594 51.015625c-11.117187 2.085937-19.566406 11.839843-19.566406 23.550781v24h496v-24c0-11.710938-8.449219-21.464844-19.566406-23.550781zm-4.433594-336.449219c4.414062 0 8 3.59375 8 8s-3.585938 8-8 8-8-3.59375-8-8 3.585938-8 8-8zm-160-16c8.824219 0 16 7.175781 16 16h-32c0-8.824219 7.175781-16 16-16zm0 232v-120h48v120zm48-136h-48c-8.824219 0-16 7.175781-16 16h-16v-32h17.375c14.183594 0 27.648438-4.679688 38.625-13.320312 10.976562 8.640624 24.441406 13.320312 38.625 13.320312h17.375v32h-16c0-8.824219-7.175781-16-16-16zm-216-96c8.824219 0 16 7.175781 16 16h-32c0-8.824219 7.175781-16 16-16zm-10.238281 168h68.46875l28.738281 86.222656c-7.007812 7.441406-27.832031 25.777344-62.96875 25.777344-35.152344 0-55.984375-18.351562-62.976562-25.777344zm66.695312-16h-64.90625c-2.207031-19.558594-12.460937-37.6875-28.34375-49.601562l-3.207031-2.398438v-20h24.808594c3.71875 18.230469 19.871094 32 39.191406 32s35.472656-13.769531 39.191406-32h24.808594v20l-3.191406 2.398438c-15.898438 11.914062-26.144532 30.042968-28.351563 49.601562zm-32.457031-56c-11.199219 0-20.550781-7.734375-23.183594-18.128906 8.390625-2.128906 16.3125-5.773438 23.183594-11.183594 6.878906 5.410156 14.792969 9.066406 23.183594 11.183594-2.632813 10.394531-11.984375 18.128906-23.183594 18.128906zm-144-64c-4.414062 0-8-3.59375-8-8s3.585938-8 8-8 8 3.59375 8 8-3.585938 8-8 8zm136 0v20.472656c-8.496094 7.421875-19.230469 11.527344-30.625 11.527344h-41.375v44l9.601562 7.199219c13.726563 10.296875 21.992188 26.578125 22.335938 43.703125l-32.847656 98.539062 2.511718 3.359375c1.078126 1.4375 26.992188 35.199219 78.398438 35.199219s77.320312-33.761719 78.398438-35.199219l2.511718-3.351562-32.847656-98.539063c.34375-17.125 8.609375-33.40625 22.34375-43.703125l9.59375-7.207031v-44h-41.375c-11.394531 0-22.136719-4.105469-30.625-11.527344v-20.472656h152v20.472656c-8.496094 7.421875-19.230469 11.527344-30.625 11.527344h-33.375v64h32v152h16v-32h16v32h16v-32h16v32h16v-152h32v-64h-33.375c-11.394531 0-22.136719-4.105469-30.625-11.527344v-20.472656h80v269.433594l-36.433594 51.015625c-11.117187 2.085937-19.566406 11.839843-19.566406 23.550781v8h-240v-8c0-11.710938-8.449219-21.464844-19.566406-23.550781l-36.433594-51.015625v-269.433594zm240 352h-16v-8c0-4.40625 3.585938-8 8-8s8 3.59375 8 8zm-296-16c4.414062 0 8 3.59375 8 8v8h-16v-8c0-4.40625 3.585938-8 8-8zm-72 16h-16v-8c0-4.40625 3.585938-8 8-8s8 3.59375 8 8zm4.832031-28.207031 27.167969-38.023438 27.167969 38.023438c-6.695313 4.261719-11.167969 11.703125-11.167969 20.207031v8h-32v-8c0-8.503906-4.472656-15.945312-11.167969-20.207031zm411.167969 20.207031v8h-32v-8c0-8.503906-4.472656-15.945312-11.167969-20.207031l27.167969-38.023438 27.167969 38.023438c-6.695313 4.261719-11.167969 11.703125-11.167969 20.207031zm32 8h-16v-8c0-4.40625 3.585938-8 8-8s8 3.59375 8 8zm0 0" data-original="#000000" class="" style="fill:#EDBDAF" data-old_color="#000000"/></g> </svg>
