<?xml version="1.0"?>
<svg xmlns="http://www.w3.org/2000/svg" xmlns:xlink="http://www.w3.org/1999/xlink" version="1.1" id="Capa_1" x="0px" y="0px" width="512px" height="512px" viewBox="0 0 115.663 115.663" style="enable-background:new 0 0 115.663 115.663;" xml:space="preserve" class=""><g><g>
	<g>
		<path d="M105.912,25.558H9.537v60.168h96.375V25.558z M104.912,84.726H10.537V26.558h94.375V84.726z" data-original="#000000" class="active-path" data-old_color="#000000" fill="#EDBDAF"/>
		<path d="M115.623,89.256c-0.102-0.289-0.36-0.418-0.607-0.442l-5.93-0.019c0.367-0.75,0.56-1.567,0.56-2.405V27.708    c0-3.066-2.494-5.561-5.56-5.561H11.512c-3.065,0-5.559,2.494-5.559,5.561V86.39c0,0.862,0.203,1.705,0.595,2.476H0.349    l-0.146,0.147c-0.109,0.112-0.601,0.726,0.509,1.832c2.421,2.422,7.616,2.649,7.836,2.657l0.52,0.015v-0.021    c6.516,0.002,74.853,0.021,92.634,0.021c4.206,0,4.216-0.002,4.209-0.002c5.043,0,7.013-1.367,8.45-2.365    c0.147-0.103,0.288-0.198,0.428-0.291l0.077-0.063C115.537,90.121,115.765,89.66,115.623,89.256z M6.953,27.708    c0-2.514,2.045-4.561,4.559-4.561h92.574c2.514,0,4.56,2.047,4.56,4.561V86.39c0,0.849-0.252,1.668-0.709,2.396l-0.232,0.016    L7.662,88.773c-0.455-0.727-0.709-1.541-0.709-2.385V27.708z M64.221,90.07v0.635H51.442V90.07H64.221z M114.189,90.054    c-0.13,0.086-0.263,0.18-0.4,0.274c-1.33,0.922-3.151,2.187-7.89,2.187c-0.605,0.008-97.334-0.019-97.334-0.019l-0.081,0.002    c-0.717-0.043-5.09-0.383-7.067-2.36c-0.107-0.106-0.187-0.198-0.245-0.274l50.021-0.023v1.115h13.277v-1.121l49.945-0.022    C114.355,89.879,114.282,89.959,114.189,90.054z" data-original="#000000" class="active-path" data-old_color="#000000" fill="#EDBDAF"/>
	</g>
</g></g> </svg>
