<?xml version="1.0"?>
<svg xmlns="http://www.w3.org/2000/svg" height="512px" viewBox="0 -6 512 512" width="512px" class=""><g><path d="m502.175781 409.484375c-39.992187-56.59375-87.488281-105.09375-141.21875-144.21875l-23.273437-46.191406 34.523437-105.714844.0625-.1875c2.632813-8.441406 2.804688-17.375.492188-25.84375-.15625-.589844-.339844-1.175781-.523438-1.75l-.078125-.25c-3.871094-11.902344-12.867187-21.316406-24.675781-25.816406-1.320313-.503907-2.65625-.925781-4.003906-1.292969v-57.128906h-30v60.042968c-.867188.429688-1.726563.882813-2.570313 1.375l-12.480468 7.289063c-13.304688 7.777344-27.863282 11.90625-42.105469 11.945313h-.648438c-14.238281-.039063-28.796875-4.167969-42.105469-11.945313l-12.484374-7.292969c-.761719-.445312-1.539063-.859375-2.320313-1.253906v-61.25h-30v58.144531c-1.429687.382813-2.847656.832031-4.25 1.367188-11.8125 4.503906-20.804687 13.914062-24.699219 25.902343l-.054687.175782c-.1875.574218-.367188 1.164062-.527344 1.757812-2.304687 8.460938-2.132813 17.390625.496094 25.824219l34.585937 105.902344-23.269531 46.191406c-53.734375 39.125-101.230469 87.625-141.222656 144.21875l-9.824219 13.898437 15.027344 7.988282c82.859375 44.035156 163.796875 67.410156 240.570312 69.472656l.402344.007812.402344-.007812c76.773437-2.0625 157.710937-25.4375 240.570312-69.472656l15.027344-7.988282zm-333.996093-305.433594c-.90625-2.953125-.960938-6.058593-.160157-8.976562l.1875-.597657c1.441407-4.4375 4.90625-6.339843 6.84375-7.078124 3.574219-1.359376 7.507813-1.042969 10.785157.871093l12.480468 7.292969c17.785156 10.390625 37.449219 15.9375 56.886719 16.046875.472656.015625.941406.015625 1.414063 0 19.441406-.109375 39.101562-5.65625 56.882812-16.046875l12.480469-7.289062c3.285156-1.917969 7.21875-2.238282 10.789062-.875 1.9375.738281 5.402344 2.640624 6.820313 6.996093l.210937.679688c.800781 2.917969.746094 6.019531-.160156 8.972656l-34.226563 104.808594c-17.847656 6.613281-35.8125 10.058593-53.503906 10.222656-17.691406-.164063-35.65625-3.605469-53.503906-10.222656zm159.308593 161.65625c-24 6.230469-48.007812 11.242188-71.546875 11.292969-23.589844-.050781-47.605468-5.0625-71.609375-11.292969l4.457031-8.894531 8.996094-17.757812c19.261719 6.492187 38.714844 9.859374 57.996094 10.023437l.128906.003906.125-.003906c19.285156-.164063 38.734375-3.53125 57.996094-10.023437l9.089844 17.941406zm-71.578125 205.28125c-67.332031-1.875-138.457031-21.398437-211.679687-58.074219 35.175781-47 75.953125-87.699218 121.4375-121.265624 30.117187 8.902343 60.433593 15.289062 90.273437 15.351562 29.78125-.0625 60.09375-6.449219 90.210938-15.351562 45.480468 33.566406 86.261718 74.265624 121.4375 121.265624-73.222656 36.675782-144.351563 56.199219-211.679688 58.074219zm0 0" data-original="#000000" class="active-path" data-old_color="#000000" fill="#FFFFFF"/></g> </svg>
