<svg xmlns="http://www.w3.org/2000/svg" version="1.1" id="Capa_1" x="0" y="0" xml:space="preserve" width="512" height="512"><path d="M448.8 0H63.2c-8.284 0-15 6.716-15 15v482c0 8.284 6.716 15 15 15h385.6c8.284 0 15-6.716 15-15V15c0-8.284-6.716-15-15-15zm-15 482H78.2V30h355.6v452z" data-original="#000000" class="active-path" data-old_color="#000000" fill="#FFF"/><path d="M299.879 91.619c-7.277-7.277-16.952-11.285-27.243-11.285-5.853 0-11.51 1.298-16.638 3.756-5.128-2.459-10.783-3.756-16.638-3.756-10.29 0-19.965 4.007-27.246 11.285-15.021 15.023-15.021 39.467.001 54.488l33.277 33.275a14.954 14.954 0 0 0 10.606 4.394 14.95 14.95 0 0 0 10.606-4.394l33.276-33.275c15.021-15.023 15.021-39.467-.001-54.488zm-21.213 33.275l-22.669 22.669-22.669-22.669c-3.324-3.326-3.324-8.738-.001-12.061a8.482 8.482 0 0 1 6.034-2.5c2.277 0 4.419.888 6.03 2.498 5.856 5.856 15.353 5.858 21.211.002a8.482 8.482 0 0 1 6.034-2.5c2.277 0 4.419.888 6.03 2.498 3.325 3.325 3.325 8.737 0 12.063zM154.139 406.06a15.11 15.11 0 0 0-10.609-4.39c-3.941 0-7.811 1.6-10.601 4.39a15.072 15.072 0 0 0-4.399 10.601c0 3.949 1.6 7.819 4.399 10.609 2.791 2.79 6.661 4.4 10.601 4.4a15.12 15.12 0 0 0 10.609-4.4 15.112 15.112 0 0 0 4.391-10.609 15.11 15.11 0 0 0-4.391-10.601zm0-80.34a15.11 15.11 0 0 0-10.609-4.39c-3.941 0-7.811 1.6-10.601 4.39-2.8 2.8-4.399 6.66-4.399 10.61 0 3.95 1.6 7.819 4.399 10.609a15.11 15.11 0 0 0 10.601 4.391c3.949 0 7.819-1.601 10.609-4.391a15.11 15.11 0 0 0 4.391-10.609c0-3.941-1.601-7.811-4.391-10.61zm0-80.33A15.11 15.11 0 0 0 143.53 241c-3.941 0-7.811 1.6-10.601 4.39-2.8 2.8-4.399 6.66-4.399 10.61s1.6 7.81 4.399 10.609A15.093 15.093 0 0 0 143.53 271c3.949 0 7.819-1.601 10.609-4.391 2.79-2.8 4.391-6.659 4.391-10.609s-1.601-7.811-4.391-10.61zm214.327 156.276H239.933c-8.284 0-15 6.716-15 15s6.716 15 15 15h128.533c8.284 0 15-6.716 15-15s-6.716-15-15-15zm0-80.334H239.933c-8.284 0-15 6.716-15 15s6.716 15 15 15h128.533c8.284 0 15-6.716 15-15s-6.716-15-15-15zm0-80.332H239.933c-8.285 0-15 6.716-15 15s6.716 15 15 15h128.533c8.284 0 15-6.716 15-15s-6.716-15-15-15z" data-original="#000000" class="active-path" data-old_color="#000000" fill="#FFF"/></svg>